<?xml version="1.0" encoding="utf-8"?>
<!-- Generator: Adobe Illustrator 22.1.0, SVG Export Plug-In . SVG Version: 6.00 Build 0)  -->
<svg version="1.1" id="图层_1" xmlns="http://www.w3.org/2000/svg" xmlns:xlink="http://www.w3.org/1999/xlink" x="0px" y="0px"
	 viewBox="0 0 1806.5 1133.8" style="enable-background:new 0 0 1806.5 1133.8;" xml:space="preserve">
<style type="text/css">
	.st0{fill:#F7F7F7;}
	.st1{opacity:0.6;}
	.st2{fill:url(#SVGID_1_);}
	.st3{fill:url(#SVGID_2_);}
	.st4{fill:#FFFFFF;}
	.st5{fill:#F8C255;}
	.st6{fill:#498ADF;}
	.st7{fill:#3A3A3A;}
	.st8{fill:url(#SVGID_3_);}
	.st9{fill:url(#SVGID_4_);}
	.st10{fill:url(#SVGID_5_);}
	.st11{fill:url(#SVGID_6_);}
	.st12{fill:url(#SVGID_7_);}
	.st13{fill:url(#SVGID_8_);}
	.st14{fill:url(#SVGID_9_);}
	.st15{fill:url(#SVGID_10_);}
	.st16{opacity:0.2;fill:#F8C255;}
	.st17{fill:none;stroke:#498ADF;stroke-width:3;stroke-miterlimit:10;}
	.st18{fill-rule:evenodd;clip-rule:evenodd;fill:#F8C255;}
	.st19{fill-rule:evenodd;clip-rule:evenodd;fill:#498ADF;}
	.st20{fill:#2B6CBA;}
	.st21{opacity:0.41;}
	.st22{fill:#CFDBE5;}
	.st23{opacity:0.5;}
	.st24{clip-path:url(#SVGID_12_);}
	.st25{fill-rule:evenodd;clip-rule:evenodd;fill:#FFFFFF;}
	.st26{fill-rule:evenodd;clip-rule:evenodd;fill:#548AFF;}
	.st27{fill:#F95F5F;}
	.st28{fill:#00C094;}
</style>
<path class="st4" d="M1755.9,1133.8H50.6c-27.8,0-50.6-22.8-50.6-50.6V50.6C0,22.8,22.8,0,50.6,0h1705.3c27.8,0,50.6,22.8,50.6,50.6
	v1032.6C1806.5,1111,1783.7,1133.8,1755.9,1133.8z"/>
<path class="st5" d="M281.2,1092.1c-96-4-110.2-50-94.4-68.6s7.2-44.2,7.2-44.2c-24.9-61.6-110.2-87.8-194-98.1v202
	c0,27.8,22.8,50.6,50.6,50.6h271.5C326,1112.3,312,1093.4,281.2,1092.1z"/>
<path class="st6" d="M1755.9,0h-583.3c12.5,29.3,49.2,72.5,156.4,84.2c166.6,18.2,215.6,95.6,230.2,140.8
	c10.6,40.9,108.6,121.6,247.3,62.4V50.6C1806.5,22.8,1783.7,0,1755.9,0z"/>
</svg>
