<?xml version="1.0" encoding="utf-8"?>
<!-- Generator: Adobe Illustrator 22.1.0, SVG Export Plug-In . SVG Version: 6.00 Build 0)  -->
<svg version="1.1" id="图层_1" xmlns="http://www.w3.org/2000/svg" xmlns:xlink="http://www.w3.org/1999/xlink" x="0px" y="0px"
	 viewBox="0 0 400 400" style="enable-background:new 0 0 400 400;" xml:space="preserve">
<style type="text/css">
	.st0{fill:#F7F7F7;}
	.st1{opacity:0.6;}
	.st2{fill:url(#SVGID_1_);}
	.st3{fill:url(#SVGID_2_);}
	.st4{fill:#FFFFFF;}
	.st5{fill:#F8C255;}
	.st6{fill:#498ADF;}
	.st7{fill:#3A3A3A;}
	.st8{fill:url(#SVGID_3_);}
	.st9{fill:url(#SVGID_4_);}
	.st10{fill:url(#SVGID_5_);}
	.st11{fill:url(#SVGID_6_);}
	.st12{fill:url(#SVGID_7_);}
	.st13{fill:url(#SVGID_8_);}
	.st14{fill:url(#SVGID_9_);}
	.st15{fill:url(#SVGID_10_);}
	.st16{opacity:0.2;fill:#F8C255;}
	.st17{fill:none;stroke:#498ADF;stroke-width:3;stroke-miterlimit:10;}
	.st18{fill-rule:evenodd;clip-rule:evenodd;fill:#F8C255;}
	.st19{fill-rule:evenodd;clip-rule:evenodd;fill:#498ADF;}
	.st20{fill:#2B6CBA;}
	.st21{opacity:0.41;}
	.st22{fill:#CFDBE5;}
	.st23{opacity:0.5;}
	.st24{clip-path:url(#SVGID_12_);}
	.st25{fill-rule:evenodd;clip-rule:evenodd;fill:#FFFFFF;}
	.st26{fill-rule:evenodd;clip-rule:evenodd;fill:#548AFF;}
	.st27{fill:#F95F5F;}
	.st28{fill:#00C094;}
	.st29{clip-path:url(#SVGID_14_);}
	.st30{fill:url(#SVGID_15_);}
	.st31{fill:url(#SVGID_16_);}
	.st32{fill:none;stroke:#498ADF;stroke-miterlimit:10;}
</style>
<g>
	<circle class="st16" cx="200" cy="199.4" r="172.3"/>
	<circle class="st16" cx="200" cy="199.4" r="132.7"/>
</g>
<g id="XMLID_1_">
	<g>
		<path class="st5" d="M264.5,157.4h-16.3v-0.2c0-16.2-13.1-29.4-29.4-29.4c-16.2,0-29.4,13.2-29.4,29.4v0.2h-16.3
			c0-25.2,20.4-45.7,45.7-45.7S264.5,132.2,264.5,157.4z"/>
	</g>
</g>
<path class="st6" d="M196.9,201.1h-53.1l0,0c-4.6-9.3-14.1-15.6-25.2-15.6c-15.5,0-28.1,12.6-28.1,28.1s12.6,28.1,28.1,28.1
	c11,0,20.6-6.4,25.2-15.6l0,0H156l6.7-6.7l6.7,6.7h0l6.7-6.7l6.6,6.6l6.6-6.6l6.7,6.7h1l9.8-12.5L196.9,201.1z M105.2,226
	c-4.6,0-8.3-5.6-8.3-12.5c0-6.9,3.7-12.5,8.3-12.5s8.3,5.6,8.3,12.5C113.5,220.5,109.7,226,105.2,226z"/>
<path class="st6" d="M232.2,229.3V227h52.4v-14.6h-52.4v-2.3h52.4v-14.6h-52.4v-2.3h52.4v-14.6h-52.4v-2.3h52.4v-13.9
	c0-2.7-2.2-4.9-4.9-4.9H157.9c-2.7,0-4.9,2.2-4.9,4.9v35.6h44l13.5,16l-12.7,16.2h-1.2l-7.3-6.6l-6.6,6.7l-6.8-6.5l-6.4,6.4
	l-6.7-6.7l-9.8,9.9v28.5c0,2.7,2.2,4.9,4.9,4.9h121.7c2.7,0,4.9-2.2,4.9-4.9v-32.7H232.2z"/>
</svg>
