<?xml version="1.0" encoding="utf-8"?>
<!-- Generator: Adobe Illustrator 22.1.0, SVG Export Plug-In . SVG Version: 6.00 Build 0)  -->
<svg version="1.1" id="图层_1" xmlns="http://www.w3.org/2000/svg" xmlns:xlink="http://www.w3.org/1999/xlink" x="0px" y="0px"
	 viewBox="0 0 400 400" style="enable-background:new 0 0 400 400;" xml:space="preserve">
<style type="text/css">
	.st0{fill:#F7F7F7;}
	.st1{opacity:0.6;}
	.st2{fill:url(#SVGID_1_);}
	.st3{fill:url(#SVGID_2_);}
	.st4{fill:#FFFFFF;}
	.st5{fill:#F8C255;}
	.st6{fill:#498ADF;}
	.st7{fill:#3A3A3A;}
	.st8{fill:url(#SVGID_3_);}
	.st9{fill:url(#SVGID_4_);}
	.st10{fill:url(#SVGID_5_);}
	.st11{fill:url(#SVGID_6_);}
	.st12{fill:url(#SVGID_7_);}
	.st13{fill:url(#SVGID_8_);}
	.st14{fill:url(#SVGID_9_);}
	.st15{fill:url(#SVGID_10_);}
	.st16{opacity:0.2;fill:#F8C255;}
	.st17{fill:none;stroke:#498ADF;stroke-width:3;stroke-miterlimit:10;}
	.st18{fill-rule:evenodd;clip-rule:evenodd;fill:#F8C255;}
	.st19{fill-rule:evenodd;clip-rule:evenodd;fill:#498ADF;}
	.st20{fill:#2B6CBA;}
	.st21{opacity:0.41;}
	.st22{fill:#CFDBE5;}
	.st23{opacity:0.5;}
	.st24{clip-path:url(#SVGID_12_);}
	.st25{fill-rule:evenodd;clip-rule:evenodd;fill:#FFFFFF;}
	.st26{fill-rule:evenodd;clip-rule:evenodd;fill:#548AFF;}
	.st27{fill:#F95F5F;}
	.st28{fill:#00C094;}
	.st29{clip-path:url(#SVGID_14_);}
	.st30{fill:url(#SVGID_15_);}
	.st31{fill:url(#SVGID_16_);}
	.st32{fill:none;stroke:#498ADF;stroke-miterlimit:10;}
</style>
<g>
	<circle class="st16" cx="201.4" cy="196.7" r="172.3"/>
	<circle class="st16" cx="201.4" cy="196.7" r="132.7"/>
</g>
<path class="st6" d="M271.2,173.1c0-38-30.8-68.8-68.8-68.8s-68.8,30.8-68.8,68.8h0c0,0-2.9,60.8,68.8,117.4
	c68.9-54.4,69-112.6,68.8-117.1C271.2,173.2,271.2,173.1,271.2,173.1z M202.4,226.6c-29.2,0-52.9-23.7-52.9-52.9
	s23.7-52.9,52.9-52.9s52.9,23.7,52.9,52.9S231.6,226.6,202.4,226.6z"/>
<circle class="st5" cx="179.9" cy="150.1" r="7"/>
<path class="st6" d="M184,212.8h-8.4c-2.6,0-4.7-2.1-4.7-4.7v-44.7c0-2.6,2.1-4.7,4.7-4.7h8.4c2.6,0,4.7,2.1,4.7,4.7v44.7
	C188.7,210.7,186.6,212.8,184,212.8z"/>
<polygon class="st6" points="163.6,138.6 241.3,209.6 255.1,201.4 250.5,197.4 174.5,127.8 167.2,126.2 "/>
<circle class="st5" cx="202.4" cy="140.5" r="7"/>
<path class="st6" d="M206.6,203.2h-8.4c-2.6,0-4.7-2.1-4.7-4.7v-44.7c0-2.6,2.1-4.7,4.7-4.7h8.4c2.6,0,4.7,2.1,4.7,4.7v44.7
	C211.2,201.1,209.1,203.2,206.6,203.2z"/>
<circle class="st5" cx="224.7" cy="150.1" r="7"/>
<path class="st6" d="M228.9,212.8h-8.4c-2.6,0-4.7-2.1-4.7-4.7v-44.7c0-2.6,2.1-4.7,4.7-4.7h8.4c2.6,0,4.7,2.1,4.7,4.7v44.7
	C233.5,210.7,231.4,212.8,228.9,212.8z"/>
</svg>
