<?xml version="1.0" encoding="utf-8"?>
<!-- Generator: Adobe Illustrator 22.1.0, SVG Export Plug-In . SVG Version: 6.00 Build 0)  -->
<svg version="1.1" id="图层_1" xmlns="http://www.w3.org/2000/svg" xmlns:xlink="http://www.w3.org/1999/xlink" x="0px" y="0px"
	 viewBox="0 0 400 400" style="enable-background:new 0 0 400 400;" xml:space="preserve">
<style type="text/css">
	.st0{fill:#F7F7F7;}
	.st1{opacity:0.6;}
	.st2{fill:url(#SVGID_1_);}
	.st3{fill:url(#SVGID_2_);}
	.st4{fill:#FFFFFF;}
	.st5{fill:#F8C255;}
	.st6{fill:#498ADF;}
	.st7{fill:#3A3A3A;}
	.st8{fill:url(#SVGID_3_);}
	.st9{fill:url(#SVGID_4_);}
	.st10{fill:url(#SVGID_5_);}
	.st11{fill:url(#SVGID_6_);}
	.st12{fill:url(#SVGID_7_);}
	.st13{fill:url(#SVGID_8_);}
	.st14{fill:url(#SVGID_9_);}
	.st15{fill:url(#SVGID_10_);}
	.st16{opacity:0.2;fill:#F8C255;}
	.st17{fill:none;stroke:#498ADF;stroke-width:3;stroke-miterlimit:10;}
	.st18{fill-rule:evenodd;clip-rule:evenodd;fill:#F8C255;}
	.st19{fill-rule:evenodd;clip-rule:evenodd;fill:#498ADF;}
	.st20{fill:#2B6CBA;}
	.st21{opacity:0.41;}
	.st22{fill:#CFDBE5;}
	.st23{opacity:0.5;}
	.st24{clip-path:url(#SVGID_12_);}
	.st25{fill-rule:evenodd;clip-rule:evenodd;fill:#FFFFFF;}
	.st26{fill-rule:evenodd;clip-rule:evenodd;fill:#548AFF;}
	.st27{fill:#F95F5F;}
	.st28{fill:#00C094;}
	.st29{clip-path:url(#SVGID_14_);}
	.st30{fill:url(#SVGID_15_);}
	.st31{fill:url(#SVGID_16_);}
</style>
<circle class="st16" cx="200" cy="200" r="177"/>
<circle class="st16" cx="200" cy="200" r="136.4"/>
<path class="st19" d="M239.4,112.6H133.9c-6.6,0-12,5.4-12,12v158.2c0,6.6,5.4,12,12,12h105.5c6.6,0,12-5.4,12-12V124.6
	C251.4,118,246,112.6,239.4,112.6z M154.2,131.6c5,0,9,4,9,9c0,5-4,9-9,9c-5,0-9-4-9-9C145.2,135.6,149.3,131.6,154.2,131.6z
	 M148.5,148.6c1.6,1.3,3.5,2,5.7,2c2.2,0,4.2-0.8,5.7-2c10.2,3.4,8.8,15.2,8.8,15.2h-14.3H154h-14.3
	C139.7,163.8,138.3,151.9,148.5,148.6z M233.6,271.3h-94v-11.5h94V271.3z M233.6,249.3h-94v-11.5h94V249.3z M233.6,227.3h-94v-11.5
	h94V227.3z M233.6,149.3H181v-11.5h52.6V149.3z"/>
<polyline class="st6" points="264.4,174.3 273.2,162.3 282,174.3 "/>
<g>
	<rect x="261.7" y="187.5" class="st6" width="23" height="79.3"/>
	<path class="st6" d="M261.7,270.1v16.5c0,4,3.3,7.3,7.3,7.3h8.4c4,0,7.3-3.3,7.3-7.3v-16.5H261.7z"/>
</g>
</svg>
