<?xml version="1.0" encoding="utf-8"?>
<!-- Generator: Adobe Illustrator 22.1.0, SVG Export Plug-In . SVG Version: 6.00 Build 0)  -->
<svg version="1.1" id="图层_1" xmlns="http://www.w3.org/2000/svg" xmlns:xlink="http://www.w3.org/1999/xlink" x="0px" y="0px"
	 viewBox="0 0 400 400" style="enable-background:new 0 0 400 400;" xml:space="preserve">
<style type="text/css">
	.st0{fill:#F7F7F7;}
	.st1{opacity:0.6;}
	.st2{fill:url(#SVGID_1_);}
	.st3{fill:url(#SVGID_2_);}
	.st4{fill:#FFFFFF;}
	.st5{fill:#F8C255;}
	.st6{fill:#498ADF;}
	.st7{fill:#3A3A3A;}
	.st8{fill:url(#SVGID_3_);}
	.st9{fill:url(#SVGID_4_);}
	.st10{fill:url(#SVGID_5_);}
	.st11{fill:url(#SVGID_6_);}
	.st12{fill:url(#SVGID_7_);}
	.st13{fill:url(#SVGID_8_);}
	.st14{fill:url(#SVGID_9_);}
	.st15{fill:url(#SVGID_10_);}
	.st16{opacity:0.2;fill:#F8C255;}
	.st17{fill:none;stroke:#498ADF;stroke-width:3;stroke-miterlimit:10;}
	.st18{fill-rule:evenodd;clip-rule:evenodd;fill:#F8C255;}
	.st19{fill-rule:evenodd;clip-rule:evenodd;fill:#498ADF;}
	.st20{fill:#2B6CBA;}
	.st21{opacity:0.41;}
	.st22{fill:#CFDBE5;}
	.st23{opacity:0.5;}
	.st24{clip-path:url(#SVGID_12_);}
	.st25{fill-rule:evenodd;clip-rule:evenodd;fill:#FFFFFF;}
	.st26{fill-rule:evenodd;clip-rule:evenodd;fill:#548AFF;}
	.st27{fill:#F95F5F;}
	.st28{fill:#00C094;}
	.st29{clip-path:url(#SVGID_14_);}
	.st30{fill:url(#SVGID_15_);}
	.st31{fill:url(#SVGID_16_);}
</style>
<circle class="st16" cx="200" cy="201.7" r="177"/>
<circle class="st16" cx="200" cy="201.1" r="136.4"/>
<linearGradient id="SVGID_1_" gradientUnits="userSpaceOnUse" x1="133.754" y1="122.5011" x2="191.754" y2="321.5011">
	<stop  offset="3.125000e-04" style="stop-color:#498ADF"/>
	<stop  offset="0.999" style="stop-color:#498ADF;stop-opacity:0"/>
</linearGradient>
<path class="st2" d="M110.3,184.5c5.7-26.6,25-55.5,47.3-67.2l7,10.3l35-33l-60.4-6.5l6.9,12.5l1.6,2.3l-1.4-2
	c-27.8,15.5-49.1,42.4-56.4,76c-13.3,61.8,26,122.8,87.8,136.1l4.4-18.5C134.6,284.3,100.1,232.1,110.3,184.5z"/>
<linearGradient id="SVGID_2_" gradientUnits="userSpaceOnUse" x1="270.5928" y1="270.3172" x2="206.0928" y2="83.8172">
	<stop  offset="3.125000e-04" style="stop-color:#498ADF"/>
	<stop  offset="0.999" style="stop-color:#498ADF;stop-opacity:0"/>
</linearGradient>
<path class="st3" d="M292.1,216.2c-5.5,26.6-24.5,55.7-46.8,67.6l-7.1-10.2l-30.1,33.8l54.8,3.8l-6.1-10.7l-1.6-2.3l1.4,2
	c27.7-15.7,48.8-42.8,55.7-76.4c12.8-61.9-27-122.6-88.9-135.4l-4.3,18.5C267,116.7,302,168.5,292.1,216.2z"/>
<g>
	<path class="st6" d="M250.4,154.1c-27.2-4.1-46.8-16.6-49.3-18.6c-2.5,2-22.1,14.6-49.3,18.6c0,0-13.5,96.1,49.5,111.7
		C264.2,250.1,250.4,154.1,250.4,154.1z M201.1,262.7c0,0,0.1,0.8,0.1,1.5C201.1,263.5,201.1,262.7,201.1,262.7z M220.6,218.5
		c-0.3-2.1-0.5-3.6-0.5-3.6C219.8,212.2,207,203,207,203l0,0c1.2-1.4,2.2-3.2,3-5.3c1.4,1.2,3.6-2.4,3.3-4.6
		c-0.3-1.9-1.6-1.5-2.1-1.3c0.1-0.9,0.1-1.8,0-2.7c-0.5-9.1-8.2-9.6-9.8-9.6c0,0,0,0-0.1,0l0,0c0,0-0.1,0-0.1,0v0c0,0,0,0,0,0
		c0,0,0,0,0,0v0c0,0,0,0-0.1,0l0,0c0,0,0,0-0.1,0c-1.6,0-9.3,0.5-9.8,9.6c-0.1,0.9,0,1.8,0,2.7c-0.4-0.2-1.8-0.7-2.1,1.3
		c-0.3,2.3,1.9,5.8,3.3,4.6c0.8,2.1,1.8,3.9,3,5.4l0,0c0,0-12.8,9.3-13.1,11.9c0,0-0.2,1.5-0.5,3.6c-7-5.7-11.5-14.3-11.5-24
		c0-17,13.8-30.8,30.8-30.8c17,0,30.8,13.8,30.8,30.8C232.1,204.2,227.6,212.8,220.6,218.5z"/>
	<path class="st6" d="M201.3,179.4C201.3,179.4,201.4,179.4,201.3,179.4L201.3,179.4L201.3,179.4z"/>
	<path class="st6" d="M201.2,179.4C201.2,179.4,201.3,179.4,201.2,179.4L201.2,179.4L201.2,179.4z"/>
</g>
</svg>
