<?xml version="1.0" encoding="utf-8"?>
<!-- Generator: Adobe Illustrator 22.1.0, SVG Export Plug-In . SVG Version: 6.00 Build 0)  -->
<svg version="1.1" id="图层_1" xmlns="http://www.w3.org/2000/svg" xmlns:xlink="http://www.w3.org/1999/xlink" x="0px" y="0px"
	 viewBox="0 0 18.1 18.1" style="enable-background:new 0 0 18.1 18.1;" xml:space="preserve">
<style type="text/css">
	.st0{opacity:0.8;fill:#FFFFFF;enable-background:new    ;}
	.st1{opacity:0.8;fill:#1890FF;enable-background:new    ;}
</style>
<path class="st1" d="M9.1,5.3C9.5,5.1,10,5,10.5,4.9L9.7,16l-0.6,1.4L8.4,16L7.6,4.9C8.1,5,8.6,5.1,9.1,5.3 M9.1,4.9
	C8.5,4.7,8,4.6,7.4,4.6c-0.5,0-1,0.1-1.5,0.2C6,4.8,6,4.9,6,5c0,0.2-0.2,0.4-0.4,0.4C5.3,5.4,5.2,5.2,5.2,5v0c0-0.2,0.1-0.3,0.2-0.4
	c1-0.4,2-0.7,3.1-0.7l0.1-1.8C8.2,1.8,8.2,1.3,8.4,1s0.8-0.4,1.1-0.1S9.9,1.6,9.7,2c0,0-0.1,0.1-0.1,0.1l0.1,1.8
	c1.1,0.1,2.1,0.3,3.1,0.7c0.2,0.1,0.3,0.3,0.2,0.6c-0.1,0.2-0.2,0.2-0.4,0.2c-0.2,0-0.4-0.2-0.4-0.4c0-0.1,0-0.1,0-0.2
	c-0.5-0.1-1-0.1-1.4-0.2C10.1,4.6,9.5,4.7,9.1,4.9 M15.5,9.7l-1.4,4.8c-0.7,0-1.3,0.2-2,0.4c-0.7,0.3-1.3,0.7-1.9,1.2l0.5-4.9
	c0.6-0.4,1.3-0.8,2.1-1C13.7,9.8,14.6,9.7,15.5,9.7 M17.4,3l-1.6,5.7c-0.9,0.1-1.8,0.2-2.6,0.4c-0.8,0.3-1.6,0.6-2.4,0.9l0.4-3.5
	c1-0.2,2-0.4,3-0.8C15.4,5,16.5,4.1,17.4,3 M2.6,9.7c0.9,0,1.8,0.2,2.7,0.5c0.7,0.2,1.5,0.6,2.1,1L7.9,16c-0.6-0.5-1.2-0.9-1.9-1.2
	c-0.6-0.2-1.3-0.3-2-0.4L2.6,9.7z M0.7,3c0.9,1.1,2,2,3.2,2.7c1,0.4,2,0.7,3,0.8L7.3,10C6.5,9.6,5.7,9.3,4.9,9.1
	C4.1,8.9,3.2,8.8,2.3,8.7L0.7,3z"/>
</svg>
