<?xml version="1.0" encoding="utf-8"?>
<!-- Generator: Adobe Illustrator 22.1.0, SVG Export Plug-In . SVG Version: 6.00 Build 0)  -->
<svg version="1.1" id="图层_1" xmlns="http://www.w3.org/2000/svg" xmlns:xlink="http://www.w3.org/1999/xlink" x="0px" y="0px"
	 viewBox="0 0 2000 3479.3" style="enable-background:new 0 0 2000 3479.3;" xml:space="preserve">
<style type="text/css">
	.st0{fill:#F7F7F7;}
	.st1{opacity:0.6;}
	.st2{fill:url(#SVGID_1_);}
	.st3{fill:url(#SVGID_2_);}
	.st4{fill:#FFFFFF;}
	.st5{fill:#F8C255;}
	.st6{fill:#498ADF;}
	.st7{fill:#3A3A3A;}
	.st8{fill:url(#SVGID_3_);}
	.st9{fill:url(#SVGID_4_);}
	.st10{fill:url(#SVGID_5_);}
	.st11{fill:url(#SVGID_6_);}
	.st12{fill:url(#SVGID_7_);}
	.st13{fill:url(#SVGID_8_);}
	.st14{fill:url(#SVGID_9_);}
	.st15{fill:url(#SVGID_10_);}
	.st16{opacity:0.2;fill:#F8C255;}
	.st17{fill:none;stroke:#498ADF;stroke-width:3;stroke-miterlimit:10;}
	.st18{fill-rule:evenodd;clip-rule:evenodd;fill:#F8C255;}
	.st19{fill-rule:evenodd;clip-rule:evenodd;fill:#498ADF;}
	.st20{fill:#2B6CBA;}
	.st21{opacity:0.41;}
	.st22{fill:#CFDBE5;}
	.st23{opacity:0.5;}
	.st24{clip-path:url(#SVGID_12_);}
	.st25{fill-rule:evenodd;clip-rule:evenodd;fill:#FFFFFF;}
	.st26{fill-rule:evenodd;clip-rule:evenodd;fill:#548AFF;}
	.st27{fill:#F95F5F;}
	.st28{fill:#00C094;}
</style>
<rect y="0" class="st0" width="2000" height="3476.1"/>
<g class="st1">
	<linearGradient id="SVGID_1_" gradientUnits="userSpaceOnUse" x1="1867.8925" y1="-66.1715" x2="1525.0251" y2="782.9609">
		<stop  offset="3.125000e-04" style="stop-color:#498ADF"/>
		<stop  offset="3.755859e-02" style="stop-color:#498ADF;stop-opacity:0.8"/>
		<stop  offset="0.999" style="stop-color:#498ADF;stop-opacity:0"/>
	</linearGradient>
	<path class="st2" d="M2000,0h-473.7c-71.1,35.9-134.3,80.7-178.9,140.5c-70.8,94.9-93.4,227.9-88.3,352.8
		c-3.8,24.3-6.1,48.7-6.9,73.2c-1.2,35.1,0.9,71.1,15.7,103.5c28.6,62.4,99.5,100.5,170.9,119.4c168.3,44.6,355.8,88.9,495.1-8.4
		c23.3-16.3,45.4-36.4,66.1-59.4V0z"/>
</g>
<g class="st1">
	<linearGradient id="SVGID_2_" gradientUnits="userSpaceOnUse" x1="583.8815" y1="775.6053" x2="-110.6434" y2="1437.743">
		<stop  offset="9.960937e-04" style="stop-color:#F8C255;stop-opacity:0"/>
		<stop  offset="0.7115" style="stop-color:#F8C255;stop-opacity:0.535"/>
		<stop  offset="0.9997" style="stop-color:#F8C255"/>
	</linearGradient>
	<path class="st3" d="M614,811.6c-40.1-30.6-91.8-51.2-145.4-63.8c-105-24.7-217.7-19.8-318.7,5.4c-40.4,10.1-79.1,23.3-116,38.9
		C22.3,795.7,11,799.7,0,804.2v749.6c71.3,2.5,142-10,207.8-28.7c256.3-72.7,456.7-247.8,494.8-455.4
		C719.1,980.2,701.1,878.1,614,811.6z"/>
</g>
<g class="st1">
	<linearGradient id="SVGID_3_" gradientUnits="userSpaceOnUse" x1="1464.7391" y1="3100.3271" x2="2000" y2="3100.3271">
		<stop  offset="9.960937e-04" style="stop-color:#F8C255;stop-opacity:0"/>
		<stop  offset="0.9997" style="stop-color:#F8C255"/>
	</linearGradient>
	<path class="st8" d="M2000,2753.8c-1-0.2-2-0.4-3-0.6c-101.2-18.4-203.9-28.8-306.7-28.8c-42.2,0-85.2,2-125,16.1
		c-39.8,14.1-76.5,42.1-92.1,81.3c-15,37.8-8.7,81.6,8.9,118.3c17.6,36.7,45.5,67.4,74.3,96.1c49.2,48.9,102.6,93.7,159.4,133.6
		c44.2,31.1,91.1,59.9,126.1,101.1c38.9,45.8,60.2,103.8,94.9,152.8c16,22.6,37.8,44.4,63.2,52.3V2753.8z"/>
</g>
<g class="st1">
	<linearGradient id="SVGID_4_" gradientUnits="userSpaceOnUse" x1="1393.8752" y1="1526.1238" x2="2000" y2="1526.1238">
		<stop  offset="9.960937e-04" style="stop-color:#F8C255;stop-opacity:0"/>
		<stop  offset="0.9997" style="stop-color:#F8C255"/>
	</linearGradient>
	<path class="st9" d="M2000,1169.5c-33.7,57.1-72.7,111-126.9,150.1c-48.5,34.9-106.1,55.6-161.7,78.5
		c-60.8,25.1-120.3,53.4-177.9,84.7c-60.8,33-125,76.9-137.5,142.6c-12.9,68.1,36.6,133.5,95.6,173
		c112.9,75.4,259.1,86.2,397.2,84.1c36.7-0.6,74.5-2.2,111.2-7.4V1169.5z"/>
</g>
<g class="st1">
	<linearGradient id="SVGID_5_" gradientUnits="userSpaceOnUse" x1="0" y1="2395.8149" x2="536.9327" y2="2395.8149">
		<stop  offset="3.125000e-04" style="stop-color:#F8C255"/>
		<stop  offset="0.999" style="stop-color:#F8C255;stop-opacity:0"/>
	</linearGradient>
	<path class="st10" d="M419.3,2057.3c-59.6-23.7-125.7-23.6-189.8-19.6c-76.7,4.7-155.9,16.1-229.6,39.3v678.8
		c51.8,1.9,105.2-10.1,151.8-32.7c94.2-45.8,165.5-127.5,228.9-210.9c47.3-62.1,91.9-126.7,126.1-196.9
		c17.9-36.9,33.2-76.9,29.6-117.8C530.9,2133.6,478.9,2081,419.3,2057.3z"/>
</g>
</svg>
