<?xml version="1.0" standalone="no"?><!DOCTYPE svg PUBLIC "-//W3C//DTD SVG 1.1//EN" "http://www.w3.org/Graphics/SVG/1.1/DTD/svg11.dtd"><svg t="1554287598024" class="icon" style="" viewBox="0 0 1024 1024" version="1.1" xmlns="http://www.w3.org/2000/svg" p-id="2007" data-spm-anchor-id="a313x.7781069.0.i4" xmlns:xlink="http://www.w3.org/1999/xlink" width="200" height="200"><defs><style type="text/css"></style></defs><path d="M740.6 691.2h-46l-0.5-286.6c-0.1-40.1-32.7-72.5-72.7-72.3l-288.3 1.4v-50.1c0-45.9 37.2-83 83-83h324.5c45.9 0 83 37.2 83 83v324.5c0.1 46-37.1 83.1-83 83.1z" fill="#ffffff" p-id="2008" data-spm-anchor-id="a313x.7781069.0.i2" class="selected"></path><path d="M748.6 181.1H408.1c-51.5 0-93.4 41.9-93.4 93.4v40.9h-41.1c-50.5 0-91.7 41.1-91.7 91.7V751c0 50.5 41.1 91.7 91.7 91.7h343.9c50.5 0 91.7-41.1 91.7-91.7v-42.7h39.3c51.5 0 93.4-41.9 93.4-93.4V274.5c0.1-51.5-41.8-93.4-93.3-93.4z m-76 569.9c0 30.3-24.7 55-55 55H273.7c-30.3 0-55-24.7-55-55V407.1c0-30.3 24.7-55 55-55h343.9c30.3 0 55 24.7 55 55V751z m132.7-136c0 31.3-25.4 56.7-56.7 56.7h-39.3V407.1c0-50.5-41.1-91.7-91.7-91.7H351.4v-40.9c0-31.3 25.4-56.7 56.7-56.7h340.5c31.3 0 56.7 25.4 56.7 56.7V615z" fill="#ffffff" p-id="2009" data-spm-anchor-id="a313x.7781069.0.i0" class=""></path><path d="M555.6 560.7H464V469c0-10.1-8.2-18.3-18.3-18.3s-18.3 8.2-18.3 18.3v91.7h-91.7c-10.1 0-18.3 8.2-18.3 18.3s8.2 18.3 18.3 18.3h91.7V689c0 10.1 8.2 18.3 18.3 18.3S464 699.1 464 689v-91.7h91.7c10.1 0 18.3-8.2 18.3-18.3s-8.2-18.3-18.4-18.3z" fill="#ffffff" p-id="2010" data-spm-anchor-id="a313x.7781069.0.i1" class=""></path></svg>