<?xml version="1.0" standalone="no"?><!DOCTYPE svg PUBLIC "-//W3C//DTD SVG 1.1//EN" "http://www.w3.org/Graphics/SVG/1.1/DTD/svg11.dtd"><svg t="1554644388307" class="icon" style="" viewBox="0 0 1025 1024" version="1.1" xmlns="http://www.w3.org/2000/svg" p-id="10413" xmlns:xlink="http://www.w3.org/1999/xlink" width="200.1953125" height="200"><defs><style type="text/css"></style></defs><path d="M514.811782 5.112332C233.63355 5.112332 5.112332 233.63355 5.112332 514.811782c0 280.667 228.521218 509.188218 509.188217 509.188218 280.667 0 509.188218-228.521218 509.188218-509.188218 0.511233-281.178233-228.009985-509.699451-508.676985-509.69945z m-2.556165 658.97953v-51.123315h101.735396V511.23315h51.123316v101.735397H766.849725v51.123315h-101.735396v101.735397h-51.123316v-101.735397h-101.735396z m178.931602-218.296555c-11.758362-1.533699-24.027958-3.067399-36.297553-3.067399-52.145781 0-100.712931 13.292062-140.589117 35.275088-5.623565 0-11.247129 0.511233-16.870694 0.511233-148.768847 0-269.41987-48.055916-269.41987-107.870195v-35.786321c0-59.303045 120.651023-107.870195 269.41987-107.870194S766.849725 275.043435 766.849725 334.857713v35.786321c0.511233 29.14029-28.629056 55.724413-75.662506 75.151273z m-224.431353 67.994009c-20.960559 19.938093-36.808787 42.432351-46.522216 67.994009-110.937594-13.292062-192.223665-54.190714-192.223665-102.757863V418.188717c0 55.21318 104.802796 90.488268 238.745881 95.600599z m-55.724413 103.78033c-1.022466 7.668497-3.067399 14.825761-3.067399 23.005491 0 16.870694 3.578632 32.718922 8.17973 48.56715-108.892661-13.803295-188.133799-54.190714-188.133799-102.24663v-60.836745c0 47.03345 76.684973 79.752371 183.021468 91.510734z m-183.021468 15.848227c0 50.612082 87.932102 84.864703 206.02696 94.0669 18.404393 29.651523 44.988517 55.21318 78.218672 74.128807-5.112332 0-9.71343 0.511233-14.825762 0.511233-148.768847 0-269.41987-48.055916-269.41987-107.870195v-60.836745z" fill="#008BFF" p-id="10414"></path></svg>