<?xml version="1.0" standalone="no"?><!DOCTYPE svg PUBLIC "-//W3C//DTD SVG 1.1//EN" "http://www.w3.org/Graphics/SVG/1.1/DTD/svg11.dtd"><svg t="1554630764578" class="icon" style="" viewBox="0 0 1024 1024" version="1.1" xmlns="http://www.w3.org/2000/svg" p-id="3276" xmlns:xlink="http://www.w3.org/1999/xlink" width="200" height="200"><defs><style type="text/css"></style></defs><path d="M45.496705 264.274966v-14.885012c0-16.636912 13.629415-30.17116 30.41573-30.17116h743.055377c16.764825 0 30.41573 13.512758 30.41573 30.129204v89.985454H45.496705v-75.079976 0.02149z m0.020466 510.334057V384.389624h803.88786v93.038999c0 5.916756 4.868891 10.712993 10.552334 10.712993h24.391526c5.827729 0 10.552334-4.556783 10.552334-10.567683V249.369487c0-41.551348-33.999348-75.185376-75.911924-75.185376H75.932901c-41.934065 0-75.911924 33.675984-75.911923 75.205843v525.198603c0 41.698704 33.914414 75.227332 75.741031 75.227332h581.118194c5.810333 0 10.519588-4.819772 10.519588-10.444887v-24.144909c0-5.768377-4.762467-10.444886-10.519588-10.444887H75.763033c-16.679891-0.001023-30.245861-13.534248-30.245862-30.172183z" fill="#ffffff" p-id="3277"></path><path d="M802.238802 515.037173a18.706037 18.706037 0 0 0-12.311397-4.594645c-5.078669 0-10.140964 2.037403-13.790074 6.007831l-124.945687 136.197961c-0.177032 0.186242-0.289596 0.406253-0.450255 0.600681a18.266016 18.266016 0 0 0-1.230014 1.647523c-0.297782 0.446162-0.578168 0.88516-0.827854 1.347694a18.072611 18.072611 0 0 0-0.811482 1.737574 17.652032 17.652032 0 0 0-0.562819 1.533936 16.618493 16.618493 0 0 0-0.425695 1.745761 19.565615 19.565615 0 0 0-0.25685 1.672082 17.770735 17.770735 0 0 0-0.072655 1.729388c0 0.576121 0.016373 1.14508 0.056282 1.729387 0.056282 0.559748 0.152473 1.12052 0.265037 1.680269 0.112564 0.584308 0.2415 1.160429 0.417508 1.729387 0.168846 0.528026 0.361227 1.046842 0.579192 1.566682 0.2415 0.576121 0.49835 1.136893 0.795109 1.688455 0.265036 0.487094 0.554632 0.949628 0.867763 1.412163 0.361227 0.536212 0.747014 1.063215 1.173733 1.566682 0.177032 0.210801 0.297782 0.437975 0.481977 0.641613L776.120958 812.866349c6.807033 7.40362 18.482957 8.05342 26.101471 1.420349 7.602142-6.632047 8.261151-18.022469 1.454118-25.442462l-97.373724-106.160855H1005.495042c10.205433 0 18.482957-8.061606 18.482957-18.022469 0-9.94449-8.277524-18.022469-18.482957-18.022469l-105.361652-0.008186-193.830567 0.008186 97.390097-106.160855c6.798846-7.410783 6.148024-18.808368-1.454118-25.440415z" fill="#ffffff" p-id="3278"></path></svg>