<?xml version="1.0" standalone="no"?><!DOCTYPE svg PUBLIC "-//W3C//DTD SVG 1.1//EN" "http://www.w3.org/Graphics/SVG/1.1/DTD/svg11.dtd"><svg t="1554626676912" class="icon" style="" viewBox="0 0 1024 1024" version="1.1" xmlns="http://www.w3.org/2000/svg" p-id="9403" xmlns:xlink="http://www.w3.org/1999/xlink" width="200" height="200"><defs><style type="text/css"></style></defs><path d="M960.719256 413.923264c0-62.908772-48.130184-115.115807-109.389386-121.625058-0.353041-0.037862-7.346315-0.074701-19.635199-0.110517L831.694671 183.833889l-96.623641 0c-5.844102-60.902068-58.393945-108.971877-121.821533-108.971877L187.076234 74.862012c-67.303872 0-122.372072 54.123688-122.372072 120.273271 0 0.600681 0.014326 1.196245 0.023536 1.794879l-0.023536-0.01535 0 55.785537L64.704163 826.742381c0 67.274196 55.04364 122.314767 122.317837 122.314767l651.381467 0c67.275219 0 122.317837-55.04057 122.317837-122.314767L960.719256 413.923264zM770.119267 292.065915c-136.700405-0.203638-409.315316-0.367367-526.911618-0.430812 0.677429-14.592346 2.647293-32.180933 7.598049-37.835723 1.817392-2.075265 7.347339-8.391111 25.622564-8.391111l493.691005 0L770.119267 292.065915zM125.888663 195.135282c0-15.462157 6.271844-30.140461 17.660218-41.335431 11.665691-11.467169 27.123754-17.779945 43.527352-17.779945l426.173263 0c16.402575 0 31.861662 6.313799 43.527352 17.779945 8.567119 8.420787 14.236236 18.816554 16.520255 30.033014l-396.868843 0c-38.188764 0-60.20622 15.990183-71.949682 29.404704-22.985504 26.253944-23.752983 63.065338-22.930245 78.114079-14.325263-1.254573-27.653827-7.360641-37.999452-17.529235-7.612375-7.482415-14.965853-16.522302-17.660218-26.312272C124.550179 242.655576 125.88764 200.261023 125.888663 195.135282zM899.563408 826.742381c-0.002047 16.200984-6.401804 31.521924-18.020422 43.141566-11.618619 11.618619-26.938536 18.017352-43.139519 18.017352L187.020976 887.901299c-16.202007 0-31.521924-6.398734-43.140543-18.017352-11.619642-11.619642-18.017352-26.940582-18.017352-43.141566L125.863081 336.521406c18.017352 10.30981 38.916335 16.232706 61.156872 16.242939l0.002047 0.001023 0.050142 0c0.002047 0 0.002047 0 0.004093 0l531.22997 0 120.099309 0c16.19996 0 31.518854 6.399757 43.136449 18.017352 11.620665 11.618619 18.020422 26.940582 18.020422 43.140543l0 116.663046L782.817474 530.58631c-33.637098 0-61.160965 27.52182-61.160965 61.158918l0 56.847729c0 33.638121 27.522844 61.158918 61.160965 61.158918l116.745934 0L899.563408 826.742381zM899.563408 648.592958 782.924921 648.592958c-0.038886-0.031722-0.076748-0.069585-0.11154-0.10847l0-56.629765c0.031722-0.038886 0.072655-0.076748 0.11154-0.10847l116.638487 0c0.038886 0.028653-0.031722 0.069585 0 0.10847l0 56.629765C899.531686 648.52235 899.602294 648.560212 899.563408 648.592958z" p-id="9404" fill="#ffffff"></path></svg>