<?xml version="1.0" encoding="utf-8"?>
<!-- Generator: Adobe Illustrator 23.0.0, SVG Export Plug-In . SVG Version: 6.00 Build 0)  -->
<svg version="1.1" id="图层_1" xmlns="http://www.w3.org/2000/svg" xmlns:xlink="http://www.w3.org/1999/xlink" x="0px" y="0px"
	 viewBox="0 0 200.2 200" style="enable-background:new 0 0 200.2 200;" xml:space="preserve">
<style type="text/css">
	.st0{fill:#FF3366;}
</style>
<path class="st0" d="M100.55,1C45.63,1,1,45.63,1,100.55C1,155.37,45.63,200,100.45,200s99.45-44.63,99.45-99.45
	C200,45.63,155.37,1,100.55,1z M149.92,129.71h-49.87v-9.99h49.87 M149.78,129.71 M135,87.07c-2.3-0.3-4.69-0.6-7.09-0.6
	c-10.18,0-19.67,2.6-27.46,6.89c-1.1,0-2.2,0.1-3.3,0.1c-29.06,0-52.62-9.39-52.62-21.07V65.4c0-11.58,23.56-21.07,52.62-21.07
	s52.62,9.39,52.62,21.07v6.99C149.88,78.08,144.18,83.28,135,87.07L135,87.07z M91.16,100.35c-4.09,3.89-7.19,8.29-9.09,13.28
	c-21.67-2.6-37.54-10.58-37.54-20.07V81.68C44.53,92.46,65,99.35,91.16,100.35z M80.28,120.62c-0.2,1.5-0.6,2.9-0.6,4.49
	c0,3.3,0.7,6.39,1.6,9.49c-21.27-2.7-36.74-10.58-36.74-19.97v-11.88C44.53,111.93,59.51,118.32,80.28,120.62z M44.53,123.71
	c0,9.89,17.17,16.58,40.24,18.37c3.59,5.79,8.79,10.78,15.28,14.48c-1,0-1.9,0.1-2.9,0.1c-29.06,0-52.62-9.39-52.62-21.07
	C44.53,135.6,44.53,123.71,44.53,123.71z"/>
</svg>
