<?xml version="1.0" encoding="UTF-8"?>
<svg width="200px" height="200px" viewBox="0 0 200 200" version="1.1" xmlns="http://www.w3.org/2000/svg" xmlns:xlink="http://www.w3.org/1999/xlink">
    <!-- Generator: Sketch 52.3 (67297) - http://www.bohemiancoding.com/sketch -->
    <title>权威</title>
    <desc>Created with Sketch.</desc>
    <g id="权威" stroke="none" stroke-width="1" fill="none" fill-rule="evenodd">
        <path d="M80.2598633,115.083282 L133.539006,130.19586 L118.426428,76.9167176 L65.1472853,61.8041396 L80.2598633,115.083282 Z M59.3431458,56 L121.665476,73.6776695 L139.343146,136 L77.0208153,118.32233 L59.3431458,56 Z" id="矩形" fill="#0838AF" fill-rule="nonzero" transform="translate(99.343146, 96.000000) rotate(-315.000000) translate(-99.343146, -96.000000) "></path>
        <path d="M41.0546626,121.711517 L52.6480482,162.583805 L81.9269512,133.304902 L41.0546626,121.711517 Z M35.250523,115.907377 L89.5728535,131.315854 L50.6590002,170.229708 L35.250523,115.907377 Z" id="矩形" fill="#0838AF" fill-rule="nonzero" transform="translate(62.411688, 143.068542) rotate(-315.000000) translate(-62.411688, -143.068542) "></path>
        <path d="M125.648048,162.583805 L154.926951,133.304902 L114.054663,121.711517 L125.648048,162.583805 Z M108.250523,115.907377 L162.572853,131.315854 L123.659,170.229708 L108.250523,115.907377 Z" id="矩形" fill="#0838AF" fill-rule="nonzero" transform="translate(135.411688, 143.068542) rotate(-315.000000) translate(-135.411688, -143.068542) "></path>
        <polygon id="路径-2" fill-opacity="0.1" fill="#0838AF" points="89.5874023 88 83 94.5874023 98.7597656 110.347168 114.519531 94.5874023 107.932129 88 98.7597656 97.1723633"></polygon>
    </g>
</svg>