<?xml version="1.0" encoding="UTF-8"?>
<svg width="200px" height="200px" viewBox="0 0 200 200" version="1.1" xmlns="http://www.w3.org/2000/svg" xmlns:xlink="http://www.w3.org/1999/xlink">
    <!-- Generator: Sketch 52.3 (67297) - http://www.bohemiancoding.com/sketch -->
    <title>安全</title>
    <desc>Created with Sketch.</desc>
    <g id="安全" stroke="none" stroke-width="1" fill="none" fill-rule="evenodd">
        <path d="M84.1428571,153.965347 L84.1428571,98.6529438 L40,71.6806945 L40,126.993098 L84.1428571,153.965347 Z M88.1428571,153.849025 L133.107701,126.967628 L133.107701,71.6279329 L88.1428571,98.5093296 L88.1428571,153.849025 Z M133.107701,71.2639422 L129.416561,69.1743076 L133.107701,71.2639422 Z M86.0022321,40 L137.107701,68.9319196 L137.107701,129.236607 L86.0022321,159.789062 L36,129.236607 L36,68.9319196 L86.0022321,40 Z M86.0239132,44.6087839 L43.568912,69.1737809 L86.024809,95.1152608 L129.416561,69.1743076 L86.0239132,44.6087839 Z" id="合并形状" fill="#0838AF" fill-rule="nonzero"></path>
        <path d="M112.896484,105.365079 L112.896484,117.145182 C112.896484,133.352909 121.822632,148.184638 136.011829,155.804664 C150.986054,148.165539 160.490234,132.745054 160.490234,115.828403 L160.490234,105.462384 C150.455838,105.631345 142.374425,102.966213 136.472627,97.4191453 C131.732024,102.811863 123.760509,105.392591 112.896484,105.365079 Z" id="路径-4" fill="#FFFFFF" fill-rule="nonzero"></path>
        <path d="M112.896484,105.365079 L112.896484,117.145182 C112.896484,133.352909 121.822632,148.184638 136.011829,155.804664 C150.986054,148.165539 160.490234,132.745054 160.490234,115.828403 L160.490234,105.462384 C150.455838,105.631345 142.374425,102.966213 136.472627,97.4191453 C131.732024,102.811863 123.760509,105.392591 112.896484,105.365079 Z M135.96582,90.7548828 C141.758789,98.9534505 151.266927,102.447917 164.490234,101.238281 L164.490234,115.828403 C164.490234,134.945379 153.346071,152.308021 135.96582,160.269531 C119.414838,152.280349 108.896484,135.523486 108.896484,117.145182 L108.896484,101.238281 C123.634766,102.103516 132.657878,98.6090495 135.96582,90.7548828 Z" id="路径-4" fill="#0838AF" fill-rule="nonzero"></path>
        <path d="M135.96582,90.7548828 C132.657878,98.6090495 123.634766,102.103516 108.896484,101.238281 L108.896484,117.145182 C108.896484,135.523486 119.414838,152.280349 135.96582,160.269531 C153.346071,152.308021 164.490234,134.945379 164.490234,115.828403 L164.490234,101.238281 C151.266927,102.447917 141.758789,98.9534505 135.96582,90.7548828 Z M139.232613,88.4466226 C144.121871,95.366203 152.223427,98.343717 164.125846,97.2549132 L168.490234,96.8556697 L168.490234,115.828403 C168.490234,136.509719 156.434146,155.293143 137.631672,163.906142 L135.92126,164.689644 L134.226991,163.871818 C116.293463,155.215279 104.896484,137.058673 104.896484,117.145182 L104.896484,96.9965679 L109.130907,97.2451564 C122.367147,98.0222111 129.772661,95.1542076 132.279434,89.202286 L135.92126,83.5566406 L139.232613,88.4466226 Z" id="路径-4" fill="#FFFFFF" fill-rule="nonzero"></path>
        <polygon id="路径-2" fill-opacity="0.1" fill="#0838AF" points="127.587402 114 121 120.587402 136.759766 136.347168 152.519531 120.587402 145.932129 114 136.759766 123.172363"></polygon>
    </g>
</svg>