<?xml version="1.0" encoding="utf-8"?>
<!-- Generator: Adobe Illustrator 22.1.0, SVG Export Plug-In . SVG Version: 6.00 Build 0)  -->
<svg version="1.1" id="图层_1" xmlns="http://www.w3.org/2000/svg" xmlns:xlink="http://www.w3.org/1999/xlink" x="0px" y="0px"
	 viewBox="0 0 40 40" style="enable-background:new 0 0 40 40;" xml:space="preserve">
<style type="text/css">
	.st0{fill:#F7F7F7;}
	.st1{fill:#498ADF;}
	.st2{fill-rule:evenodd;clip-rule:evenodd;fill:#FFFFFF;}
	.st3{fill:#FFFFFF;}
	.st4{fill:#2B6CBA;}
	.st5{opacity:0.41;fill:#CFDBE5;}
	.st6{fill-rule:evenodd;clip-rule:evenodd;fill:#F8C255;}
	.st7{fill:#000333;}
	.st8{fill:#FFFFFF;stroke:#000000;stroke-width:3;stroke-miterlimit:10;}
	.st9{clip-path:url(#SVGID_2_);}
	.st10{fill:#3A3A3A;}
	.st11{fill-rule:evenodd;clip-rule:evenodd;fill:#548AFF;}
	.st12{fill:#F95F5F;}
	.st13{fill:#00C094;}
	.st14{fill:none;stroke:#F8C255;stroke-width:3;stroke-miterlimit:10;}
	.st15{fill:none;stroke:#F8C255;stroke-width:5;stroke-miterlimit:10;}
</style>
<g>
	<path class="st1" d="M5.8,32H5.2c-1.8,0-3.3-1.5-3.3-3.3V5.5c0-1.8,1.5-3.3,3.3-3.3h23.3c1.8,0,3.3,1.5,3.3,3.3v1H11.4
		c0,0-4.8-0.3-4.8,4.8V32H5.8z"/>
	<path class="st1" d="M8.4,32V11.5c0-1.9,1.5-3.4,3.4-3.4h23.1c1.9,0,3.4,1.5,3.4,3.4v23.1c0,1.9-1.5,3.4-3.4,3.4H11.8
		c-1.9,0-3.4-1.5-3.4-3.4V32"/>
</g>
</svg>
