<?xml version="1.0" standalone="no"?><!DOCTYPE svg PUBLIC "-//W3C//DTD SVG 1.1//EN" "http://www.w3.org/Graphics/SVG/1.1/DTD/svg11.dtd"><svg t="1554630911899" class="icon" style="" viewBox="0 0 1024 1024" version="1.1" xmlns="http://www.w3.org/2000/svg" p-id="6821" xmlns:xlink="http://www.w3.org/1999/xlink" width="200" height="200"><defs><style type="text/css"></style></defs><path d="M382.4 125.1c12.2 0 24.3 3.9 33 10.7l0.4 0.3 0.4 0.3 49.6 36.5c12.9 10 29.3 15.5 46.4 15.5 17.1 0 33.5-5.5 46.4-15.5l48.9-36c10.7-7.5 23.9-11.8 36.3-11.8 5.7 0 11 0.9 15.4 2.7l0.7 0.3 0.7 0.3c39.3 13.9 75.1 34.9 109.4 64.3l0.7 0.6 0.7 0.5c13.6 10.5 21.4 29.5 20 48.4l-7.7 59.2c-4.8 33.4 12.5 65.1 44 80.8l1 0.5 1 0.4 54.6 23.4c17.8 8.1 30.4 23.9 33.8 42.4l0.6 5.4c2.3 20.6 4.3 38.4 4.3 57.9 0 21-2.3 45.3-4.9 68.5-4 22-20.6 33.8-33.7 39.7l-52.7 23.7-0.7 0.3-0.7 0.3c-31.2 15.6-48.4 46.8-44.1 79.8l5.2 54.2c0.8 10 0.7 34.6-18.5 48l-1.5 1-1.4 1.2c-33 28.3-71.4 49.9-114 64.1-4.9 1.6-14 3.4-19.8 3.4-12.3 0-24.1-3.7-31.4-9.8l-0.6-0.5-0.6-0.5-44.4-33.6c-13-10.4-29.7-16.1-47-16.1s-34.1 5.7-46.4 15.6l-45 34.4c-8.7 6.8-20.8 10.7-33 10.7-6.4 0-12.6-1.1-18.6-3.2C334 881 297 860.2 252.7 827.7c-13.5-10.7-21.2-29.8-19.7-48.4l5.2-54.6c4.3-33-13-64.3-44.1-79.8l-0.7-0.3-0.7-0.3-52.6-23.7c-17.6-8-31-24.2-34.1-41.2l-0.1-0.7-0.2-0.7c-4.4-19.7-4.4-43.1-4.4-65.7 0-19.5 2-37.3 4.3-57.9l0.6-5.4c3.4-18.5 16-34.3 33.1-42.1l55.3-23.7 1-0.4 1-0.5c31.5-15.7 48.7-47.5 44-80.4l-7.8-59.7c-0.8-10.4-0.2-34.2 18.5-47.2l0.8-0.6 0.8-0.6c35.2-27.7 71.8-49.2 111.6-65.7 5.8-2 11.7-3 17.9-3m261.2-37.3c-19.7 0-40.4 6.4-57.7 18.6l-50.1 36.9c-6.6 5.3-15.2 7.9-23.7 7.9-8.6 0-17.1-2.6-23.7-7.9l-50.1-36.9c-15.6-12.1-35.7-18.6-55.9-18.6-10.6 0-21.1 1.8-31.1 5.4-44.8 18.4-84.3 42.2-121.2 71.2-26.4 18.4-36.9 50.1-34.3 81.7l7.9 60.6c2.6 18.4-7.9 34.3-23.7 42.2l-55.3 23.7c-29 13.2-50.1 39.5-55.3 71.2-2.6 23.7-5.3 44.8-5.3 68.5 0 23.7 0 50.1 5.3 73.8 5.3 29 26.4 55.3 55.3 68.5l52.7 23.7c15.8 7.9 26.4 23.7 23.7 42.2l-5.3 55.3c-2.6 31.6 10.5 63.3 34.3 81.7 39.5 29 81.7 55.3 126.5 71.2 9.9 3.6 20.5 5.4 31.1 5.4 20.2 0 40.3-6.4 55.9-18.6l44.8-34.3c6.6-5.3 15.2-7.9 23.7-7.9 8.6 0 17.1 2.6 23.7 7.9l44.8 34.3c15.8 13.2 36.9 18.4 55.3 18.4 10.5 0 23.7-2.6 31.6-5.3 47.4-15.8 89.6-39.5 126.5-71.2 26.4-18.4 36.9-50.1 34.3-81.7l-5.3-55.3c-2.6-18.4 7.9-34.3 23.7-42.2l52.7-23.7c29-13.2 50.1-36.9 55.3-68.5 2.6-23.7 5.3-50.1 5.3-73.8 0-23.7-2.6-44.8-5.3-68.5-5.3-31.6-26.4-58-55.3-71.2l-55.3-23.7c-15.8-7.9-26.4-23.7-23.7-42.2l7.9-60.6c2.6-31.6-10.5-63.3-34.3-81.7-36.9-31.6-76.4-55.3-121.2-71.2-9-3.6-18.9-5.3-29.2-5.3z" p-id="6822" fill="#ffffff"></path><path d="M512.1 379.5c71.2 0 131.3 60.1 131.3 131.3 0 72.4-58.9 131.3-131.3 131.3-71.2 0-131.3-60.1-131.3-131.3 0-71.1 60.1-131.3 131.3-131.3m0-37.3c-92.2 0-168.7 76.4-168.7 168.7 0 92.2 76.4 168.7 168.7 168.7 94.9 0 168.7-76.4 168.7-168.7 0-92.3-76.4-168.7-168.7-168.7z" p-id="6823" fill="#ffffff"></path></svg>