<?xml version="1.0" encoding="utf-8"?>
<!-- Generator: Adobe Illustrator 23.0.0, SVG Export Plug-In . SVG Version: 6.00 Build 0)  -->
<svg version="1.1" id="图层_1" xmlns="http://www.w3.org/2000/svg" xmlns:xlink="http://www.w3.org/1999/xlink" x="0px" y="0px"
	 viewBox="0 0 200 200" style="enable-background:new 0 0 200 200;" xml:space="preserve">
<style type="text/css">
	.st0{fill:#FFFFFF;}
</style>
<path class="st0" d="M8.89,51.62v-2.91c0-3.25,2.66-5.89,5.94-5.89h145.13c3.27,0,5.94,2.64,5.94,5.88v17.58H8.89V51.62
	C8.89,51.61,8.89,51.62,8.89,51.62z M8.89,151.29V75.08H165.9v18.17c0,1.16,0.95,2.09,2.06,2.09h4.76c1.14,0,2.06-0.89,2.06-2.06
	V48.7c0-8.12-6.64-14.68-14.83-14.68H14.83C6.64,34.02,0,40.6,0,48.71v102.58c0,8.14,6.62,14.69,14.79,14.69h113.5
	c1.13,0,2.05-0.94,2.05-2.04v-4.72c0-1.13-0.93-2.04-2.05-2.04H14.8C11.54,157.18,8.89,154.54,8.89,151.29L8.89,151.29z"/>
<path class="st0" d="M169.59,159.04c0.67,0.58,1.52,0.9,2.4,0.9c0.99,0,1.98-0.4,2.69-1.17l24.4-26.6c0.03-0.04,0.06-0.08,0.09-0.12
	c0.09-0.1,0.17-0.21,0.24-0.32c0.06-0.09,0.11-0.17,0.16-0.26c0.06-0.11,0.11-0.22,0.16-0.34c0.04-0.1,0.08-0.2,0.11-0.3
	c0.03-0.11,0.06-0.23,0.08-0.34c0.02-0.11,0.04-0.22,0.05-0.33c0.01-0.11,0.01-0.23,0.01-0.34c0-0.11,0-0.22-0.01-0.34
	c-0.01-0.11-0.03-0.22-0.05-0.33c-0.02-0.11-0.05-0.23-0.08-0.34c-0.03-0.1-0.07-0.2-0.11-0.31c-0.05-0.11-0.1-0.22-0.16-0.33
	c-0.05-0.1-0.11-0.19-0.17-0.28c-0.07-0.1-0.15-0.21-0.23-0.31c-0.03-0.04-0.06-0.09-0.09-0.13l-24.4-26.6
	c-1.33-1.45-3.61-1.57-5.1-0.28c-1.48,1.3-1.61,3.52-0.28,4.97l19.02,20.73h-58.44c-1.99,0-3.61,1.57-3.61,3.52
	c0,1.94,1.62,3.52,3.61,3.52l20.58,0l37.86,0l-19.02,20.73C167.98,155.52,168.1,157.74,169.59,159.04L169.59,159.04z"/>
</svg>
