<?xml version="1.0" standalone="no"?><!DOCTYPE svg PUBLIC "-//W3C//DTD SVG 1.1//EN" "http://www.w3.org/Graphics/SVG/1.1/DTD/svg11.dtd"><svg t="1554619284185" class="icon" style="" viewBox="0 0 1024 1024" version="1.1" xmlns="http://www.w3.org/2000/svg" p-id="30344" xmlns:xlink="http://www.w3.org/1999/xlink" width="200" height="200"><defs><style type="text/css"></style></defs><path d="M64.018399 612.498154 64.018399 283.357032c0-134.912587 79.298997-219.388926 219.388926-219.388926l329.141122 0c140.194221 0 219.385201 89.657405 219.385201 219.388926l0 0 0 116.620554 64.072398 0L896.006046 255.972991C896.009771 114.612938 781.400558 0 640.040504 0L256.023284 0C114.66323 0 0.054017 114.612938 0.054017 255.972991l0 384.013495c0 141.360054 114.612938 255.976716 255.972991 255.976716l144.004595 0 0-63.968106-116.620554 0C150.189479 831.991372 64.018399 742.333966 64.018399 612.498154zM992.014076 735.987067l-192.004885 0 0-192.004885c0-17.655108-14.273075-32.039924-32.039924-32.039924-17.655108 0-32.036199 14.381091-32.036199 32.039924l0 192.004885-191.900593 0c-17.766849 0-32.039924 14.276799-32.039924 31.931907 0 17.763124 14.273075 32.036199 32.039924 32.036199l191.900593 0 0 192.00861c0 17.655108 14.377366 32.036199 32.036199 32.036199 17.766849 0 32.039924-14.377366 32.039924-32.036199l0-192.00861 192.004885 0c17.655108 0 31.931907-14.377366 31.931907-32.036199S1009.669183 735.987067 992.014076 735.987067z" p-id="30345" fill="#ffffff"></path></svg>