<?xml version="1.0" standalone="no"?><!DOCTYPE svg PUBLIC "-//W3C//DTD SVG 1.1//EN" "http://www.w3.org/Graphics/SVG/1.1/DTD/svg11.dtd"><svg t="1554619310730" class="icon" style="" viewBox="0 0 1024 1024" version="1.1" xmlns="http://www.w3.org/2000/svg" p-id="31126" xmlns:xlink="http://www.w3.org/1999/xlink" width="200" height="200"><defs><style type="text/css"></style></defs><path d="M908.8 256l-166.4-179.2c-19.2-19.2-51.2-32-76.8-32H147.2c-38.4 0-64 25.6-64 64v812.8c0 38.4 25.6 64 64 64h723.2c38.4 0 64-32 64-64V332.8c6.4-25.6-6.4-57.6-25.6-76.8z m-192-115.2l115.2 128h-115.2v-128zM147.2 915.2V108.8h499.2v160c0 38.4 25.6 64 64 64h160v582.4H147.2z" p-id="31127" fill="#ffffff"></path><path d="M652.8 614.4l-108.8 108.8V352c0-19.2-12.8-32-32-32s-32 12.8-32 32v371.2L371.2 614.4c-12.8-12.8-32-12.8-44.8 0s-12.8 32 0 44.8l160 160c6.4 6.4 12.8 12.8 25.6 12.8s19.2-6.4 25.6-12.8l160-160c12.8-12.8 12.8-32 0-44.8s-32-12.8-44.8 0z" p-id="31128" fill="#ffffff"></path></svg>