<?xml version="1.0" encoding="utf-8"?>
<!-- Generator: Adobe Illustrator 22.1.0, SVG Export Plug-In . SVG Version: 6.00 Build 0)  -->
<svg version="1.1" id="图层_1" xmlns="http://www.w3.org/2000/svg" xmlns:xlink="http://www.w3.org/1999/xlink" x="0px" y="0px"
	 viewBox="0 0 186.5 96.4" style="enable-background:new 0 0 186.5 96.4;" xml:space="preserve">
<style type="text/css">
	.st0{fill:#F7F7F7;}
	.st1{fill:#498ADF;}
	.st2{fill-rule:evenodd;clip-rule:evenodd;fill:#FFFFFF;}
	.st3{fill:#FFFFFF;}
	.st4{fill:#2B6CBA;}
	.st5{opacity:0.41;fill:#CFDBE5;}
	.st6{fill-rule:evenodd;clip-rule:evenodd;fill:#F8C255;}
	.st7{fill:#000333;}
	.st8{fill:#FFFFFF;stroke:#000000;stroke-width:3;stroke-miterlimit:10;}
	.st9{clip-path:url(#SVGID_2_);}
	.st10{fill:#3A3A3A;}
	.st11{fill-rule:evenodd;clip-rule:evenodd;fill:#548AFF;}
	.st12{fill:#F95F5F;}
	.st13{fill:#00C094;}
	.st14{fill:none;stroke:#F8C255;stroke-width:3;stroke-miterlimit:10;}
	.st15{fill:none;stroke:#F8C255;stroke-width:5;stroke-miterlimit:10;}
</style>
<rect x="22" y="19.6" class="st2" width="58.6" height="58.6"/>
<g>
	<path class="st7" d="M108.4,21.8c0-1.2,0.2-2.3,0.6-3.3c0.4-1,1-1.7,1.7-2.4c0.7-0.6,1.5-1.1,2.4-1.4c0.9-0.3,1.8-0.5,2.7-0.5
		c0.9,0,1.8,0.2,2.7,0.5c0.9,0.3,1.7,0.8,2.4,1.4c0.7,0.6,1.3,1.4,1.7,2.4c0.4,1,0.6,2,0.6,3.3v1.6h-4.4v-1.6c0-1.1-0.3-1.9-0.9-2.4
		c-0.6-0.5-1.3-0.8-2.1-0.8c-0.8,0-1.5,0.3-2.1,0.8c-0.6,0.5-0.9,1.3-0.9,2.4v16.3c0,1.1,0.3,1.9,0.9,2.4c0.6,0.5,1.3,0.8,2.1,0.8
		c0.8,0,1.5-0.3,2.1-0.8c0.6-0.5,0.9-1.3,0.9-2.4v-5.8h-3.5v-3.9h7.9v9.7c0,1.3-0.2,2.4-0.6,3.3c-0.4,0.9-1,1.7-1.7,2.3
		c-0.7,0.6-1.5,1.1-2.4,1.4c-0.9,0.3-1.8,0.5-2.7,0.5c-0.9,0-1.8-0.2-2.7-0.5c-0.9-0.3-1.7-0.8-2.4-1.4c-0.7-0.6-1.3-1.4-1.7-2.3
		c-0.4-0.9-0.6-2-0.6-3.3V21.8z"/>
	<path class="st7" d="M125.1,45.3l6.9-30.8h3.7l6.9,30.8h-4.4l-1.3-6.6h-6l-1.3,6.6H125.1z M136,34.6l-2.2-11.2h-0.1l-2.2,11.2H136z
		"/>
	<path class="st7" d="M144.7,45.3V14.6h7.1c5.2,0,7.8,3,7.8,9c0,1.8-0.3,3.4-0.8,4.6c-0.6,1.3-1.5,2.3-3,3.1l4.8,14.1h-4.7
		l-4.1-13.1h-2.6v13.1H144.7z M149.1,18.7v9.6h2.5c0.8,0,1.4-0.1,1.9-0.3c0.5-0.2,0.8-0.5,1.1-0.9c0.2-0.4,0.4-0.9,0.5-1.5
		c0.1-0.6,0.1-1.3,0.1-2.1c0-0.8,0-1.5-0.1-2.1c-0.1-0.6-0.3-1.1-0.5-1.5c-0.5-0.8-1.6-1.2-3.1-1.2H149.1z"/>
	<path class="st7" d="M163.1,45.3V14.6h6.5c2.5,0,4.5,0.7,5.8,2.1c1.3,1.4,2,3.3,2,5.9v14.4c0,2.9-0.7,5-2.1,6.4
		c-1.4,1.4-3.4,2.1-6,2.1H163.1z M167.5,18.7v22.5h2c1.2,0,2.1-0.3,2.6-0.9c0.5-0.6,0.8-1.6,0.8-2.9V22.5c0-1.2-0.2-2.1-0.7-2.8
		c-0.5-0.7-1.4-1-2.7-1H167.5z"/>
	<path class="st7" d="M108.7,83.2V52.4h6.4c1.4,0,2.6,0.2,3.6,0.6c1,0.4,1.8,1,2.4,1.7c0.6,0.7,1.1,1.5,1.4,2.5
		c0.3,0.9,0.4,1.9,0.4,2.9v1.1c0,0.8-0.1,1.5-0.2,2.1c-0.1,0.6-0.3,1.1-0.6,1.5c-0.5,0.8-1.2,1.5-2.2,2.1c1,0.5,1.8,1.2,2.3,2.2
		c0.5,1,0.7,2.2,0.7,3.9v1.7c0,2.7-0.7,4.8-2,6.2c-1.3,1.4-3.4,2.2-6.3,2.2H108.7z M113.1,56.5V65h2c1.5,0,2.5-0.4,3-1.1
		c0.5-0.7,0.8-1.8,0.8-3.2c0-1.4-0.3-2.4-0.8-3.1c-0.6-0.7-1.6-1-3-1H113.1z M113.1,68.9v9.9h1.9c0.9,0,1.6-0.1,2.1-0.4
		c0.5-0.3,0.9-0.6,1.1-1.1c0.3-0.5,0.4-1,0.5-1.6c0.1-0.6,0.1-1.3,0.1-2.1c0-0.8,0-1.5-0.1-2c-0.1-0.6-0.3-1.1-0.5-1.5
		c-0.3-0.4-0.7-0.7-1.2-0.9c-0.5-0.2-1.1-0.3-1.9-0.3H113.1z"/>
	<path class="st7" d="M126.8,59.6c0-1.2,0.2-2.3,0.6-3.3c0.4-1,1-1.7,1.7-2.4c0.7-0.6,1.5-1.1,2.4-1.4c0.9-0.3,1.8-0.5,2.7-0.5
		c0.9,0,1.8,0.2,2.7,0.5c0.9,0.3,1.7,0.8,2.4,1.4c0.7,0.6,1.3,1.4,1.7,2.4c0.4,1,0.6,2,0.6,3.3v16.3c0,1.3-0.2,2.4-0.6,3.3
		c-0.4,0.9-1,1.7-1.7,2.3c-0.7,0.6-1.5,1.1-2.4,1.4c-0.9,0.3-1.8,0.5-2.7,0.5c-0.9,0-1.8-0.2-2.7-0.5c-0.9-0.3-1.7-0.8-2.4-1.4
		c-0.7-0.6-1.3-1.4-1.7-2.3c-0.4-0.9-0.6-2-0.6-3.3V59.6z M131.2,75.9c0,1.1,0.3,1.9,0.9,2.4c0.6,0.5,1.3,0.8,2.1,0.8
		c0.8,0,1.5-0.3,2.1-0.8c0.6-0.5,0.9-1.3,0.9-2.4V59.6c0-1.1-0.3-1.9-0.9-2.4c-0.6-0.5-1.3-0.8-2.1-0.8c-0.8,0-1.5,0.3-2.1,0.8
		c-0.6,0.5-0.9,1.3-0.9,2.4V75.9z"/>
	<path class="st7" d="M143.4,83.2l6.2-16.1l-5.7-14.7h4.7l3.3,9.1l3.4-9.1h4.7L154,67l6.4,16.1h-4.7l-3.8-10.4L148,83.2H143.4z"/>
</g>
<path class="st6" d="M81.4,7H19.5C13.9,7,9.2,11.6,9.2,17.2v61.9c0,5.6,4.6,10.3,10.3,10.3h61.9c5.6,0,10.3-4.6,10.3-10.3V17.2
	C91.6,11.6,87,7,81.4,7z M39,34.1c2.8-1.3,5.9-2.1,9.6-2.4l0.3-5.5c-0.5-0.5-0.9-1.1-0.9-1.9c0-1.4,1.1-2.5,2.5-2.5s2.5,1.1,2.5,2.5
	c0,0.8-0.3,1.4-0.9,1.9l0.3,5.5c3.7,0.2,6.8,1.1,9.6,2.4c0.5,0.2,0.8,0.7,0.8,1.2c0,0.7-0.6,1.3-1.3,1.3c-0.7,0-1.3-0.6-1.3-1.3
	c0-0.2,0-0.5,0.1-0.7c-1.6-0.3-2.9-0.5-4.5-0.5c-2.5-0.1-4.4,0.6-5.3,0.9c-0.8-0.3-2.8-1-5.3-0.9c-1.6,0-3,0.2-4.5,0.5
	c0.1,0.2,0.1,0.4,0.1,0.7c0,0.7-0.6,1.3-1.3,1.3c-0.8,0-1.3-0.6-1.3-1.3C38.2,34.8,38.5,34.4,39,34.1z M24.1,29.2
	c0,0,5.6,6.5,10.2,8.4c4.6,1.9,9.4,2.6,9.4,2.6l1.2,11c0,0-4.5-2-7.5-2.8c-3-0.8-8.3-1.1-8.3-1.1L24.1,29.2z M40.9,66.3
	c-2.7-0.9-6.2-1.2-6.2-1.2l-4.4-15c0,0,3.9,0,8.4,1.5c4.6,1.5,6.6,3.1,6.6,3.1l1.6,15.4C46.9,70.1,43.6,67.2,40.9,66.3z M50.5,74.5
	l-2-4.4L46,35.3c1.7,0,3.7,0.7,4.5,1c0.8-0.3,2.8-0.9,4.5-1l-2.5,34.8L50.5,74.5z M66.3,65.1c0,0-3.5,0.2-6.2,1.2
	c-2.7,0.9-6,3.8-6,3.8l1.6-15.4c0,0,2-1.6,6.6-3.1c4.6-1.5,8.4-1.5,8.4-1.5L66.3,65.1z M71.7,47.2c0,0-5.3,0.3-8.3,1.1
	c-3,0.8-7.5,2.8-7.5,2.8l1.2-11c0,0,4.9-0.7,9.4-2.6c4.6-1.9,10.2-8.4,10.2-8.4L71.7,47.2z"/>
</svg>
