<svg xmlns="http://www.w3.org/2000/svg" viewBox="0 0 293.97 130"><defs><style>.a,.b{fill:#fff;}.a{fill-rule:evenodd;}</style></defs><title>gardbox</title><path class="a" d="M95.09,14.83H19.73A12.53,12.53,0,0,0,7.24,27.32v75.36a12.53,12.53,0,0,0,12.49,12.49H95.09a12.53,12.53,0,0,0,12.5-12.49V27.32A12.53,12.53,0,0,0,95.09,14.83ZM43.46,47.88A32.82,32.82,0,0,1,55.17,45l.39-6.72a3,3,0,1,1,3.81,0L59.76,45a32.82,32.82,0,0,1,11.71,2.88,1.57,1.57,0,0,1,.92,1.44,1.58,1.58,0,1,1-3.16,0,1.74,1.74,0,0,1,.18-.8,35,35,0,0,0-5.51-.64,16.51,16.51,0,0,0-6.43,1,16.59,16.59,0,0,0-6.43-1,35,35,0,0,0-5.52.64,1.74,1.74,0,0,1,.18.8,1.58,1.58,0,1,1-3.16,0A1.57,1.57,0,0,1,43.46,47.88Zm-18.07-6s6.83,7.93,12.38,10.2a55.74,55.74,0,0,0,11.5,3.13L50.74,68.6a72.07,72.07,0,0,0-9.11-3.44,68.83,68.83,0,0,0-10.11-1.37ZM45.74,87a33.85,33.85,0,0,0-7.53-1.43L32.85,67.3a36.78,36.78,0,0,1,10.26,1.86,28,28,0,0,1,8,3.8L53.08,91.7S49,88.18,45.74,87ZM57.46,97,55,91.65l-3-42.4a20.54,20.54,0,0,1,5.51,1.21A20.73,20.73,0,0,1,63,49.25l-3,42.4ZM76.72,85.61A33.85,33.85,0,0,0,69.19,87c-3.3,1.14-7.34,4.66-7.34,4.66L63.8,73a28,28,0,0,1,8-3.8A36.78,36.78,0,0,1,82.08,67.3ZM83.3,63.79a68.59,68.59,0,0,0-10.1,1.37,71.41,71.41,0,0,0-9.11,3.44l1.46-13.42a55.74,55.74,0,0,0,11.5-3.13c5.55-2.27,12.39-10.2,12.39-10.2Z"/><path class="b" d="M144.23,110.82H121.64V68.23h21.54q15.27.39,16.32,10.22,0,7.51-9,10,9.63,1.92,10.88,9.82Q161.38,110.83,144.23,110.82Zm-2.72-35.46H132.1V85.58h9.41q6.69-.19,6.9-5.4Q148.2,75.56,141.51,75.36Zm1.05,17.35H132.1v11.36h10.25q7.72,0,8-5.78C150,94.7,147.44,92.83,142.56,92.71Z"/><path class="b" d="M205.83,89.81q-1.2,20.63-21.58,21.78-20.59-1.16-21.78-21.78,1-21.39,21.78-22.16Q204.44,68.81,205.83,89.81Zm-10.89,0q-.41-13.29-10.89-13.87-10.7.59-11.29,13.87.41,13.11,11.09,13.69Q194.55,103.11,194.94,89.81Z"/><path class="b" d="M159.05,30.27l-8.87,3.28q-3.08-5.77-10.59-5.78-9.65,1-10.41,13.68.39,13.11,11.18,14.07,7.32,0,10.21-4.44v-5.2H138V38.17h21.39V54Q155,63.22,140,63.22q-20.23-.77-21-22,1.16-20.62,20.42-21.78Q154,19.48,159.05,30.27Z"/><path class="b" d="M262.72,62.65H248.85V20.06h13.29q22.94.2,23.32,21Q286.23,63.43,262.72,62.65ZM262,28h-3.28V55.13H262q13.49.19,13.3-14.07Q274.86,28.16,262,28Z"/><path class="b" d="M233.4,45.5Q244,43.37,243.8,32.78q-.57-12.33-16.18-12.72H208.15v7.51h17.92q7.91-.2,7.52,5.78.19,5.58-7.52,5.58H208.15V62.65h9.64V46.07h5.59l10.4,16.38h12.14Z"/><polygon class="b" points="177.3 20.06 188.86 20.06 204.85 62.65 194.25 62.65 183.17 30.81 171.9 62.65 161.5 62.65 177.3 20.06"/><polyline class="b" points="206.63 111.01 233.66 68.42 244.95 68.42 217.04 111.01"/><polygon class="b" points="206.63 68.42 217.92 68.42 244.95 111.01 234.54 111.01 206.63 68.42"/></svg>