<?xml version="1.0" encoding="utf-8"?>
<!-- Generator: Adobe Illustrator 22.1.0, SVG Export Plug-In . SVG Version: 6.00 Build 0)  -->
<svg version="1.1" xmlns="http://www.w3.org/2000/svg" xmlns:xlink="http://www.w3.org/1999/xlink" x="0px" y="0px"
	 viewBox="0 0 281 281" style="enable-background:new 0 0 281 281;" xml:space="preserve">
<style type="text/css">
	.st0{fill:#9A9DA3;}
	.st1{fill:#C0C4CC;}
	.st2{fill:#ACB0B8;}
	.st3{fill:#DCDFE6;}
</style>
<g id="图层_2">
	<g>
		<polygon class="st0" points="144,44.3 144,242.6 205.5,209.5 246.5,70.8 		"/>
		<polygon class="st1" points="144,44.3 246.5,70.8 144,28.9 		"/>
		<polygon class="st2" points="144,242.6 144,260.1 205.5,209.5 		"/>
		<polygon class="st1" points="144,44.3 144,242.6 82.5,209.5 41.5,70.8 		"/>
		<polygon class="st3" points="144,44.3 41.5,70.8 144,28.9 		"/>
		<polygon class="st0" points="144,242.6 144,260.1 82.5,209.5 		"/>
	</g>
	<path class="st2" d="M144.2,101.8 M144.2,101.8c5-1.9,10.5-3,15.8-3.4l-8.6,119.3l-7.2,15 M144.2,52.5c2,0,3.7,0.5,5.6,2
		c3.6,2.9,4.2,8.3,1.2,11.9c-0.4,0.5-0.8,0.9-1.2,1.2l0.9,18.9c11.4,0.6,22.5,3.3,32.9,8.1c2.3,1,3.3,3.7,2.2,5.9
		c-0.7,1.6-2.3,2.6-4.1,2.6c-2.4-0.1-4.4-2-4.4-4.5c-0.2-0.8-0.2-1.5,0-2.3c-5.1-1-10.3-1.6-15.5-1.8c-6.2-0.2-11.8,0.8-17.6,2.9
		 M144.2,97.5 M213.3,149.2l-14.6,51.3c-7.2,0.5-14.3,1.9-21.2,4c-7.5,3.3-14.5,7.7-20.7,13.1l5.6-52.6c6.9-4.8,14.4-8.4,22.5-10.7
		c9.3-3.1,19-4.8,28.8-5.2 M234.4,77.6l-17.3,61.6c-9.5,0.6-19,1.9-28.3,3.9c-8.7,2.7-17.3,6-25.6,9.9l4.1-37.7
		c11.1-1.8,21.9-4.7,32.3-8.8c13.2-7.4,25-17.1,34.8-28.6"/>
	<path class="st3" d="M144.2,101.8 M144.2,232.8l-7.2-15l-8.6-119.3c5.3,0.4,10.8,1.5,15.8,3.4 M144.2,97.5
		c-5.8-2.1-11.4-3.2-17.6-2.9c-5.2,0.2-10.4,0.8-15.5,1.8c0.2,0.8,0.2,1.5,0,2.3c0,2.4-1.9,4.4-4.4,4.5c-1.8,0-3.4-1-4.1-2.6
		c-1-2.3,0-4.9,2.2-5.9c10.4-4.7,21.5-7.4,32.9-8.1l0.9-18.9c-0.5-0.4-0.9-0.8-1.2-1.2c-2.9-3.6-2.4-9,1.2-11.9c1.8-1.5,3.6-2,5.6-2
		 M144.2,97.5 M74.7,149.1c9.8,0.3,19.5,2.1,28.8,5.2c8,2.3,15.6,6,22.5,10.7l5.6,52.6c-6.2-5.4-13.2-9.8-20.7-13.1
		c-6.9-2.1-14-3.4-21.2-4l-14.6-51.3 M54,77.9c9.8,11.6,21.6,21.3,34.8,28.6c10.4,4.1,21.3,7,32.3,8.8l4.1,37.7
		c-8.3-3.9-16.8-7.2-25.6-9.9c-9.3-2-18.8-3.3-28.3-3.9L54,77.6"/>
</g>
<g id="图层_1">
</g>
</svg>
